<mxfile host="app.diagrams.net" modified="2024-02-27T10:51:54.515Z" agent="Mozilla/5.0 (Windows NT 10.0; Win64; x64) AppleWebKit/537.36 (KHTML, like Gecko) Chrome/122.0.0.0 Safari/537.36 Edg/122.0.0.0" etag="L9ukCS_5c1Q71hEaz_W2" version="23.1.2" type="device">
  <diagram name="Pagina-1" id="T7NvS7cVIkrfI_V--DdK">
    <mxGraphModel dx="2227" dy="1264" grid="1" gridSize="10" guides="1" tooltips="1" connect="1" arrows="1" fold="1" page="1" pageScale="1" pageWidth="4681" pageHeight="3300" math="0" shadow="0">
      <root>
        <mxCell id="0" />
        <mxCell id="1" parent="0" />
        <mxCell id="MtitfBZDbUzC3YXm_WV6-15" style="edgeStyle=orthogonalEdgeStyle;rounded=0;orthogonalLoop=1;jettySize=auto;html=1;exitX=0.5;exitY=1;exitDx=0;exitDy=0;sketch=1;curveFitting=1;jiggle=2;" edge="1" parent="1" source="MtitfBZDbUzC3YXm_WV6-13" target="MtitfBZDbUzC3YXm_WV6-14">
          <mxGeometry relative="1" as="geometry" />
        </mxCell>
        <mxCell id="MtitfBZDbUzC3YXm_WV6-13" value="Start" style="rounded=1;whiteSpace=wrap;html=1;fontSize=14;fillColor=#d5e8d4;sketch=1;curveFitting=1;jiggle=2;strokeColor=#82b366;fontFamily=Architects Daughter;fontSource=https%3A%2F%2Ffonts.googleapis.com%2Fcss%3Ffamily%3DArchitects%2BDaughter;" vertex="1" parent="1">
          <mxGeometry x="2137.5" y="10" width="145" height="80" as="geometry" />
        </mxCell>
        <mxCell id="MtitfBZDbUzC3YXm_WV6-17" style="edgeStyle=orthogonalEdgeStyle;rounded=0;orthogonalLoop=1;jettySize=auto;html=1;exitX=0.5;exitY=1;exitDx=0;exitDy=0;entryX=0.5;entryY=0;entryDx=0;entryDy=0;sketch=1;curveFitting=1;jiggle=2;" edge="1" parent="1" source="MtitfBZDbUzC3YXm_WV6-14" target="MtitfBZDbUzC3YXm_WV6-16">
          <mxGeometry relative="1" as="geometry" />
        </mxCell>
        <mxCell id="MtitfBZDbUzC3YXm_WV6-14" value="Vraag naar de naam van de deelnemer" style="shape=parallelogram;perimeter=parallelogramPerimeter;whiteSpace=wrap;html=1;fixedSize=1;fontSize=14;sketch=1;curveFitting=1;jiggle=2;fillColor=#fad7ac;strokeColor=#b46504;fontFamily=Architects Daughter;fontSource=https%3A%2F%2Ffonts.googleapis.com%2Fcss%3Ffamily%3DArchitects%2BDaughter;" vertex="1" parent="1">
          <mxGeometry x="2133.75" y="140" width="152.5" height="70" as="geometry" />
        </mxCell>
        <mxCell id="MtitfBZDbUzC3YXm_WV6-19" value="Nee" style="edgeStyle=orthogonalEdgeStyle;rounded=0;orthogonalLoop=1;jettySize=auto;html=1;exitX=0;exitY=0.5;exitDx=0;exitDy=0;entryX=1;entryY=0.5;entryDx=0;entryDy=0;sketch=1;curveFitting=1;jiggle=2;fontSize=14;fontFamily=Architects Daughter;fontSource=https%3A%2F%2Ffonts.googleapis.com%2Fcss%3Ffamily%3DArchitects%2BDaughter;" edge="1" parent="1" source="MtitfBZDbUzC3YXm_WV6-16" target="MtitfBZDbUzC3YXm_WV6-18">
          <mxGeometry relative="1" as="geometry" />
        </mxCell>
        <mxCell id="MtitfBZDbUzC3YXm_WV6-21" value="Ja" style="edgeStyle=orthogonalEdgeStyle;rounded=0;orthogonalLoop=1;jettySize=auto;html=1;exitX=0.5;exitY=1;exitDx=0;exitDy=0;sketch=1;curveFitting=1;jiggle=2;fontSize=14;fontFamily=Architects Daughter;fontSource=https%3A%2F%2Ffonts.googleapis.com%2Fcss%3Ffamily%3DArchitects%2BDaughter;" edge="1" parent="1" source="MtitfBZDbUzC3YXm_WV6-16" target="MtitfBZDbUzC3YXm_WV6-20">
          <mxGeometry relative="1" as="geometry" />
        </mxCell>
        <mxCell id="MtitfBZDbUzC3YXm_WV6-16" value="Is de naam uniek?" style="rhombus;whiteSpace=wrap;html=1;sketch=1;curveFitting=1;jiggle=2;fillColor=none;fontFamily=Architects Daughter;fontSource=https%3A%2F%2Ffonts.googleapis.com%2Fcss%3Ffamily%3DArchitects%2BDaughter;fontSize=14;" vertex="1" parent="1">
          <mxGeometry x="2156.25" y="260" width="107.5" height="110" as="geometry" />
        </mxCell>
        <mxCell id="MtitfBZDbUzC3YXm_WV6-29" style="edgeStyle=orthogonalEdgeStyle;rounded=0;sketch=1;hachureGap=4;jiggle=2;curveFitting=1;orthogonalLoop=1;jettySize=auto;html=1;exitX=0.5;exitY=1;exitDx=0;exitDy=0;entryX=0;entryY=0.5;entryDx=0;entryDy=0;fontFamily=Architects Daughter;fontSource=https%3A%2F%2Ffonts.googleapis.com%2Fcss%3Ffamily%3DArchitects%2BDaughter;fontSize=16;" edge="1" parent="1" source="MtitfBZDbUzC3YXm_WV6-18" target="MtitfBZDbUzC3YXm_WV6-23">
          <mxGeometry relative="1" as="geometry" />
        </mxCell>
        <mxCell id="MtitfBZDbUzC3YXm_WV6-18" value="Naam telt niet" style="rounded=0;whiteSpace=wrap;html=1;sketch=1;curveFitting=1;jiggle=2;fillColor=none;fontSize=14;fontFamily=Architects Daughter;fontSource=https%3A%2F%2Ffonts.googleapis.com%2Fcss%3Ffamily%3DArchitects%2BDaughter;" vertex="1" parent="1">
          <mxGeometry x="1950" y="282.5" width="130" height="65" as="geometry" />
        </mxCell>
        <mxCell id="MtitfBZDbUzC3YXm_WV6-47" style="edgeStyle=orthogonalEdgeStyle;rounded=0;sketch=1;hachureGap=4;jiggle=2;curveFitting=1;orthogonalLoop=1;jettySize=auto;html=1;exitX=0.5;exitY=1;exitDx=0;exitDy=0;entryX=0.5;entryY=0;entryDx=0;entryDy=0;fontFamily=Architects Daughter;fontSource=https%3A%2F%2Ffonts.googleapis.com%2Fcss%3Ffamily%3DArchitects%2BDaughter;fontSize=16;" edge="1" parent="1" source="MtitfBZDbUzC3YXm_WV6-20" target="MtitfBZDbUzC3YXm_WV6-23">
          <mxGeometry relative="1" as="geometry" />
        </mxCell>
        <mxCell id="MtitfBZDbUzC3YXm_WV6-20" value="Naam is toegevoegd aan lootjes&amp;nbsp;" style="rounded=0;whiteSpace=wrap;html=1;sketch=1;curveFitting=1;jiggle=2;fillColor=none;fontSize=14;fontFamily=Architects Daughter;fontSource=https%3A%2F%2Ffonts.googleapis.com%2Fcss%3Ffamily%3DArchitects%2BDaughter;" vertex="1" parent="1">
          <mxGeometry x="2146.25" y="420" width="127.5" height="67.5" as="geometry" />
        </mxCell>
        <mxCell id="MtitfBZDbUzC3YXm_WV6-28" value="&amp;lt; 3" style="edgeStyle=orthogonalEdgeStyle;rounded=0;sketch=1;hachureGap=4;jiggle=2;curveFitting=1;orthogonalLoop=1;jettySize=auto;html=1;exitX=1;exitY=0.5;exitDx=0;exitDy=0;entryX=1;entryY=0.5;entryDx=0;entryDy=0;fontFamily=Architects Daughter;fontSource=https%3A%2F%2Ffonts.googleapis.com%2Fcss%3Ffamily%3DArchitects%2BDaughter;fontSize=14;" edge="1" parent="1">
          <mxGeometry relative="1" as="geometry">
            <mxPoint x="2263.13" y="595" as="sourcePoint" />
            <mxPoint x="2276.25" y="175" as="targetPoint" />
            <Array as="points">
              <mxPoint x="2359.38" y="595" />
              <mxPoint x="2359.38" y="175" />
            </Array>
          </mxGeometry>
        </mxCell>
        <mxCell id="MtitfBZDbUzC3YXm_WV6-32" value="=&amp;gt; 3" style="edgeStyle=orthogonalEdgeStyle;rounded=0;sketch=1;hachureGap=4;jiggle=2;curveFitting=1;orthogonalLoop=1;jettySize=auto;html=1;exitX=0.5;exitY=1;exitDx=0;exitDy=0;entryX=0.5;entryY=0;entryDx=0;entryDy=0;fontFamily=Architects Daughter;fontSource=https%3A%2F%2Ffonts.googleapis.com%2Fcss%3Ffamily%3DArchitects%2BDaughter;fontSize=14;" edge="1" parent="1" source="MtitfBZDbUzC3YXm_WV6-23" target="MtitfBZDbUzC3YXm_WV6-31">
          <mxGeometry relative="1" as="geometry" />
        </mxCell>
        <mxCell id="MtitfBZDbUzC3YXm_WV6-23" value="Check aantal namen" style="rhombus;whiteSpace=wrap;html=1;sketch=1;hachureGap=4;jiggle=2;curveFitting=1;fontFamily=Architects Daughter;fontSize=14;fontSource=https%3A%2F%2Ffonts.googleapis.com%2Fcss%3Ffamily%3DArchitects%2BDaughter;fillColor=none;" vertex="1" parent="1">
          <mxGeometry x="2156.88" y="540" width="106.25" height="110" as="geometry" />
        </mxCell>
        <mxCell id="MtitfBZDbUzC3YXm_WV6-33" value="Ja" style="edgeStyle=orthogonalEdgeStyle;rounded=0;sketch=1;hachureGap=4;jiggle=2;curveFitting=1;orthogonalLoop=1;jettySize=auto;html=1;exitX=0;exitY=0.5;exitDx=0;exitDy=0;entryX=0;entryY=0.5;entryDx=0;entryDy=0;fontFamily=Architects Daughter;fontSource=https%3A%2F%2Ffonts.googleapis.com%2Fcss%3Ffamily%3DArchitects%2BDaughter;fontSize=14;" edge="1" parent="1" source="MtitfBZDbUzC3YXm_WV6-31" target="MtitfBZDbUzC3YXm_WV6-14">
          <mxGeometry relative="1" as="geometry">
            <Array as="points">
              <mxPoint x="1910" y="755" />
              <mxPoint x="1910" y="175" />
            </Array>
          </mxGeometry>
        </mxCell>
        <mxCell id="MtitfBZDbUzC3YXm_WV6-37" value="Nee" style="edgeStyle=orthogonalEdgeStyle;rounded=0;sketch=1;hachureGap=4;jiggle=2;curveFitting=1;orthogonalLoop=1;jettySize=auto;html=1;exitX=0.5;exitY=1;exitDx=0;exitDy=0;entryX=0.5;entryY=0;entryDx=0;entryDy=0;fontFamily=Architects Daughter;fontSource=https%3A%2F%2Ffonts.googleapis.com%2Fcss%3Ffamily%3DArchitects%2BDaughter;fontSize=14;" edge="1" parent="1" source="MtitfBZDbUzC3YXm_WV6-31" target="MtitfBZDbUzC3YXm_WV6-36">
          <mxGeometry relative="1" as="geometry" />
        </mxCell>
        <mxCell id="MtitfBZDbUzC3YXm_WV6-31" value="&lt;font size=&quot;1&quot;&gt;Nog meer namen toevoegen?&lt;/font&gt;" style="rhombus;whiteSpace=wrap;html=1;sketch=1;hachureGap=4;jiggle=2;curveFitting=1;fontFamily=Architects Daughter;fontSource=https%3A%2F%2Ffonts.googleapis.com%2Fcss%3Ffamily%3DArchitects%2BDaughter;fontSize=20;fillColor=none;" vertex="1" parent="1">
          <mxGeometry x="2151.57" y="700" width="116.87" height="110" as="geometry" />
        </mxCell>
        <mxCell id="MtitfBZDbUzC3YXm_WV6-42" style="edgeStyle=orthogonalEdgeStyle;rounded=0;sketch=1;hachureGap=4;jiggle=2;curveFitting=1;orthogonalLoop=1;jettySize=auto;html=1;exitX=0.5;exitY=1;exitDx=0;exitDy=0;entryX=0.5;entryY=0;entryDx=0;entryDy=0;fontFamily=Architects Daughter;fontSource=https%3A%2F%2Ffonts.googleapis.com%2Fcss%3Ffamily%3DArchitects%2BDaughter;fontSize=16;" edge="1" parent="1" source="MtitfBZDbUzC3YXm_WV6-36" target="MtitfBZDbUzC3YXm_WV6-41">
          <mxGeometry relative="1" as="geometry" />
        </mxCell>
        <mxCell id="MtitfBZDbUzC3YXm_WV6-36" value="Iedereen krijgt een random lootje" style="rounded=0;whiteSpace=wrap;html=1;sketch=1;hachureGap=4;jiggle=2;curveFitting=1;fontFamily=Architects Daughter;fontSource=https%3A%2F%2Ffonts.googleapis.com%2Fcss%3Ffamily%3DArchitects%2BDaughter;fontSize=14;fillColor=none;" vertex="1" parent="1">
          <mxGeometry x="2145" y="860" width="129.99" height="66.25" as="geometry" />
        </mxCell>
        <mxCell id="MtitfBZDbUzC3YXm_WV6-44" value="Ja" style="edgeStyle=orthogonalEdgeStyle;rounded=0;sketch=1;hachureGap=4;jiggle=2;curveFitting=1;orthogonalLoop=1;jettySize=auto;html=1;exitX=1;exitY=0.5;exitDx=0;exitDy=0;entryX=1;entryY=0.5;entryDx=0;entryDy=0;fontFamily=Architects Daughter;fontSource=https%3A%2F%2Ffonts.googleapis.com%2Fcss%3Ffamily%3DArchitects%2BDaughter;fontSize=14;" edge="1" parent="1" source="MtitfBZDbUzC3YXm_WV6-41" target="MtitfBZDbUzC3YXm_WV6-36">
          <mxGeometry relative="1" as="geometry">
            <Array as="points">
              <mxPoint x="2320" y="1035" />
              <mxPoint x="2320" y="893" />
            </Array>
          </mxGeometry>
        </mxCell>
        <mxCell id="MtitfBZDbUzC3YXm_WV6-46" value="Nee" style="edgeStyle=orthogonalEdgeStyle;rounded=0;sketch=1;hachureGap=4;jiggle=2;curveFitting=1;orthogonalLoop=1;jettySize=auto;html=1;exitX=0.5;exitY=1;exitDx=0;exitDy=0;entryX=0.5;entryY=0;entryDx=0;entryDy=0;fontFamily=Architects Daughter;fontSource=https%3A%2F%2Ffonts.googleapis.com%2Fcss%3Ffamily%3DArchitects%2BDaughter;fontSize=14;" edge="1" parent="1" source="MtitfBZDbUzC3YXm_WV6-41" target="MtitfBZDbUzC3YXm_WV6-45">
          <mxGeometry relative="1" as="geometry" />
        </mxCell>
        <mxCell id="MtitfBZDbUzC3YXm_WV6-41" value="Eigen lootje getrokken?" style="rhombus;whiteSpace=wrap;html=1;sketch=1;hachureGap=4;jiggle=2;curveFitting=1;fontFamily=Architects Daughter;fontSource=https%3A%2F%2Ffonts.googleapis.com%2Fcss%3Ffamily%3DArchitects%2BDaughter;fontSize=14;fillColor=none;" vertex="1" parent="1">
          <mxGeometry x="2154.2099999999996" y="980" width="111.57" height="110" as="geometry" />
        </mxCell>
        <mxCell id="MtitfBZDbUzC3YXm_WV6-45" value="Alle namen met bijhorende lootjes worden geprint" style="rounded=1;whiteSpace=wrap;html=1;sketch=1;hachureGap=4;jiggle=2;curveFitting=1;fontFamily=Architects Daughter;fontSource=https%3A%2F%2Ffonts.googleapis.com%2Fcss%3Ffamily%3DArchitects%2BDaughter;fontSize=14;fillColor=#d5e8d4;strokeColor=#82b366;" vertex="1" parent="1">
          <mxGeometry x="2133.75" y="1150" width="152.5" height="80" as="geometry" />
        </mxCell>
      </root>
    </mxGraphModel>
  </diagram>
</mxfile>
